<svg xmlns="http://www.w3.org/2000/svg" width="512" height="512" viewBox="0 0 512 512" fill="#1E40AF">
    <path d="M480,128a32,32,0,0,0-32-32H352a16,16,0,0,0,0,32h96v32a16,16,0,0,0,32,0V128Z"/>
    <path d="M160,358.78,131.33,384H104a56,56,0,0,0,0,112H328a56,56,0,0,0,0-112H192v-8.67l34.67-27.73A32,32,0,0,0,232,296V192a32,32,0,0,0-64,0V296a32,32,0,0,0,5.33,18.09Z"/>
    <path d="M352,64a16,16,0,0,0,16-16V32a16,16,0,0,0-32,0V48A16,16,0,0,0,352,64Z"/>
    <path d="M384,192a32,32,0,0,0-32-32H272a32,32,0,0,0,0,64h80A32,32,0,0,0,384,192Z"/>
    <path d="M304,112a16,16,0,0,0,16-16V80a16,16,0,0,0-32,0V96A16,16,0,0,0,304,112Z"/>
</svg>